<mxfile host="app.diagrams.net" modified="2024-03-18T20:35:44.466Z" agent="Mozilla/5.0 (Windows NT 10.0; Win64; x64) AppleWebKit/537.36 (KHTML, like Gecko) Chrome/121.0.0.0 Safari/537.36 OPR/107.0.0.0" etag="azUXme-E-QjJEkA2PL1O" version="24.0.7" type="device" pages="2">
  <diagram name="Arquitetura" id="AUl-CXe7TrY4Nd5Yo3G-">
    <mxGraphModel dx="2533" dy="2593" grid="1" gridSize="10" guides="1" tooltips="1" connect="1" arrows="1" fold="1" page="1" pageScale="1" pageWidth="1920" pageHeight="1200" math="0" shadow="0">
      <root>
        <mxCell id="0" />
        <mxCell id="1" parent="0" />
        <mxCell id="6m14IXHiwR1GvfuoIgwy-27" value="" style="swimlane;startSize=0;fillColor=none;fontColor=#000000;strokeColor=#C73500;strokeWidth=2;" vertex="1" parent="1">
          <mxGeometry x="274" y="-950" width="936" height="720" as="geometry" />
        </mxCell>
        <mxCell id="6m14IXHiwR1GvfuoIgwy-31" value="" style="swimlane;startSize=0;fillColor=#e51400;fontColor=#ffffff;strokeColor=#FF0000;strokeWidth=3;" vertex="1" parent="6m14IXHiwR1GvfuoIgwy-27">
          <mxGeometry x="20" y="120" width="870" height="560" as="geometry" />
        </mxCell>
        <mxCell id="6m14IXHiwR1GvfuoIgwy-32" value="" style="sketch=0;points=[[0,0,0],[0.25,0,0],[0.5,0,0],[0.75,0,0],[1,0,0],[0,1,0],[0.25,1,0],[0.5,1,0],[0.75,1,0],[1,1,0],[0,0.25,0],[0,0.5,0],[0,0.75,0],[1,0.25,0],[1,0.5,0],[1,0.75,0]];outlineConnect=0;fontColor=#232F3E;fillColor=#ED7100;strokeColor=#ffffff;dashed=0;verticalLabelPosition=bottom;verticalAlign=top;align=center;html=1;fontSize=12;fontStyle=0;aspect=fixed;shape=mxgraph.aws4.resourceIcon;resIcon=mxgraph.aws4.ecs;" vertex="1" parent="6m14IXHiwR1GvfuoIgwy-31">
          <mxGeometry x="-14" y="-30" width="66" height="66" as="geometry" />
        </mxCell>
        <mxCell id="6m14IXHiwR1GvfuoIgwy-58" value="" style="swimlane;startSize=0;dashed=1;fillColor=#0050ef;fontColor=#ffffff;strokeColor=#001DBC;" vertex="1" parent="6m14IXHiwR1GvfuoIgwy-31">
          <mxGeometry x="10" y="70" width="809.5" height="170" as="geometry" />
        </mxCell>
        <mxCell id="6m14IXHiwR1GvfuoIgwy-63" value="&lt;b&gt;ECS&amp;nbsp;&lt;/b&gt;&lt;div&gt;&lt;b&gt;SERVICES&lt;/b&gt;&lt;/div&gt;" style="sketch=0;outlineConnect=0;fontColor=#232F3E;gradientColor=none;fillColor=#ED7100;strokeColor=none;dashed=0;verticalLabelPosition=bottom;verticalAlign=top;align=center;html=1;fontSize=12;fontStyle=0;aspect=fixed;pointerEvents=1;shape=mxgraph.aws4.ecs_service;" vertex="1" parent="6m14IXHiwR1GvfuoIgwy-58">
          <mxGeometry x="13" y="10" width="39" height="48" as="geometry" />
        </mxCell>
        <mxCell id="6m14IXHiwR1GvfuoIgwy-41" value="EC2 instance contents" style="points=[[0,0],[0.25,0],[0.5,0],[0.75,0],[1,0],[1,0.25],[1,0.5],[1,0.75],[1,1],[0.75,1],[0.5,1],[0.25,1],[0,1],[0,0.75],[0,0.5],[0,0.25]];outlineConnect=0;gradientColor=none;html=1;whiteSpace=wrap;fontSize=12;fontStyle=0;container=1;pointerEvents=0;collapsible=0;recursiveResize=0;shape=mxgraph.aws4.group;grIcon=mxgraph.aws4.group_ec2_instance_contents;strokeColor=#D86613;fillColor=none;verticalAlign=top;align=left;spacingLeft=30;fontColor=#D86613;dashed=0;strokeWidth=3;" vertex="1" parent="6m14IXHiwR1GvfuoIgwy-31">
          <mxGeometry x="136" y="40" width="218" height="190" as="geometry" />
        </mxCell>
        <mxCell id="6m14IXHiwR1GvfuoIgwy-44" value="&lt;b&gt;Correntista-servicos-saldo&lt;/b&gt;" style="shape=image;html=1;verticalAlign=top;verticalLabelPosition=bottom;labelBackgroundColor=#ffffff;imageAspect=0;aspect=fixed;image=https://cdn1.iconfinder.com/data/icons/unicons-line-vol-3/24/docker-128.png" vertex="1" parent="6m14IXHiwR1GvfuoIgwy-41">
          <mxGeometry x="54.5" y="43.5" width="109" height="109" as="geometry" />
        </mxCell>
        <mxCell id="6m14IXHiwR1GvfuoIgwy-35" value="EC2 instance contents" style="points=[[0,0],[0.25,0],[0.5,0],[0.75,0],[1,0],[1,0.25],[1,0.5],[1,0.75],[1,1],[0.75,1],[0.5,1],[0.25,1],[0,1],[0,0.75],[0,0.5],[0,0.25]];outlineConnect=0;gradientColor=none;html=1;whiteSpace=wrap;fontSize=12;fontStyle=0;container=1;pointerEvents=0;collapsible=0;recursiveResize=0;shape=mxgraph.aws4.group;grIcon=mxgraph.aws4.group_ec2_instance_contents;strokeColor=#D86613;fillColor=none;verticalAlign=top;align=left;spacingLeft=30;fontColor=#D86613;dashed=0;strokeWidth=3;" vertex="1" parent="6m14IXHiwR1GvfuoIgwy-31">
          <mxGeometry x="137.25" y="280" width="218" height="190" as="geometry" />
        </mxCell>
        <mxCell id="6m14IXHiwR1GvfuoIgwy-36" value="EC2 instance contents" style="points=[[0,0],[0.25,0],[0.5,0],[0.75,0],[1,0],[1,0.25],[1,0.5],[1,0.75],[1,1],[0.75,1],[0.5,1],[0.25,1],[0,1],[0,0.75],[0,0.5],[0,0.25]];outlineConnect=0;gradientColor=none;html=1;whiteSpace=wrap;fontSize=12;fontStyle=0;container=1;pointerEvents=0;collapsible=0;recursiveResize=0;shape=mxgraph.aws4.group;grIcon=mxgraph.aws4.group_ec2_instance_contents;strokeColor=#D86613;fillColor=none;verticalAlign=top;align=left;spacingLeft=30;fontColor=#D86613;dashed=0;strokeWidth=3;" vertex="1" parent="6m14IXHiwR1GvfuoIgwy-31">
          <mxGeometry x="587.25" y="280" width="218" height="190" as="geometry" />
        </mxCell>
        <mxCell id="6m14IXHiwR1GvfuoIgwy-38" value="" style="swimlane;startSize=0;dashed=1;fillColor=#0050ef;fontColor=#ffffff;strokeColor=#001DBC;" vertex="1" parent="6m14IXHiwR1GvfuoIgwy-31">
          <mxGeometry x="21.25" y="325" width="819.5" height="170" as="geometry" />
        </mxCell>
        <mxCell id="6m14IXHiwR1GvfuoIgwy-39" value="&lt;b&gt;Correntista-servicos-transferencias&lt;/b&gt;" style="shape=image;html=1;verticalAlign=top;verticalLabelPosition=bottom;labelBackgroundColor=#ffffff;imageAspect=0;aspect=fixed;image=https://cdn1.iconfinder.com/data/icons/unicons-line-vol-3/24/docker-128.png" vertex="1" parent="6m14IXHiwR1GvfuoIgwy-38">
          <mxGeometry x="170.5" y="-4" width="109" height="109" as="geometry" />
        </mxCell>
        <mxCell id="6m14IXHiwR1GvfuoIgwy-37" value="&lt;b&gt;ECS&amp;nbsp;&lt;/b&gt;&lt;div&gt;&lt;b&gt;SERVICES&lt;/b&gt;&lt;/div&gt;" style="sketch=0;outlineConnect=0;fontColor=#232F3E;gradientColor=none;fillColor=#ED7100;strokeColor=none;dashed=0;verticalLabelPosition=bottom;verticalAlign=top;align=center;html=1;fontSize=12;fontStyle=0;aspect=fixed;pointerEvents=1;shape=mxgraph.aws4.ecs_service;" vertex="1" parent="6m14IXHiwR1GvfuoIgwy-31">
          <mxGeometry x="37.25" y="335" width="39" height="48" as="geometry" />
        </mxCell>
        <mxCell id="6m14IXHiwR1GvfuoIgwy-46" value="Auto Scaling group" style="points=[[0,0],[0.25,0],[0.5,0],[0.75,0],[1,0],[1,0.25],[1,0.5],[1,0.75],[1,1],[0.75,1],[0.5,1],[0.25,1],[0,1],[0,0.75],[0,0.5],[0,0.25]];outlineConnect=0;gradientColor=none;html=1;whiteSpace=wrap;fontSize=12;fontStyle=0;container=1;pointerEvents=0;collapsible=0;recursiveResize=0;shape=mxgraph.aws4.groupCenter;grIcon=mxgraph.aws4.group_auto_scaling_group;grStroke=1;strokeColor=#D86613;fillColor=none;verticalAlign=top;align=center;fontColor=#D86613;dashed=1;spacingTop=25;" vertex="1" parent="6m14IXHiwR1GvfuoIgwy-31">
          <mxGeometry x="76.25" y="20" width="753.75" height="460" as="geometry" />
        </mxCell>
        <mxCell id="6m14IXHiwR1GvfuoIgwy-42" value="EC2 instance contents" style="points=[[0,0],[0.25,0],[0.5,0],[0.75,0],[1,0],[1,0.25],[1,0.5],[1,0.75],[1,1],[0.75,1],[0.5,1],[0.25,1],[0,1],[0,0.75],[0,0.5],[0,0.25]];outlineConnect=0;gradientColor=none;html=1;whiteSpace=wrap;fontSize=12;fontStyle=0;container=1;pointerEvents=0;collapsible=0;recursiveResize=0;shape=mxgraph.aws4.group;grIcon=mxgraph.aws4.group_ec2_instance_contents;strokeColor=#D86613;fillColor=none;verticalAlign=top;align=left;spacingLeft=30;fontColor=#D86613;dashed=0;strokeWidth=3;" vertex="1" parent="6m14IXHiwR1GvfuoIgwy-46">
          <mxGeometry x="511" y="23" width="218" height="190" as="geometry" />
        </mxCell>
        <mxCell id="6m14IXHiwR1GvfuoIgwy-43" value="&lt;b&gt;Correntista-servicos-saldo&lt;/b&gt;" style="shape=image;html=1;verticalAlign=top;verticalLabelPosition=bottom;labelBackgroundColor=#ffffff;imageAspect=0;aspect=fixed;image=https://cdn1.iconfinder.com/data/icons/unicons-line-vol-3/24/docker-128.png;fontStyle=1" vertex="1" parent="6m14IXHiwR1GvfuoIgwy-42">
          <mxGeometry x="57" y="46" width="104" height="104" as="geometry" />
        </mxCell>
        <mxCell id="6m14IXHiwR1GvfuoIgwy-40" value="&lt;b&gt;Correntista-servicos-transferencias&lt;/b&gt;" style="shape=image;html=1;verticalAlign=top;verticalLabelPosition=bottom;labelBackgroundColor=#ffffff;imageAspect=0;aspect=fixed;image=https://cdn1.iconfinder.com/data/icons/unicons-line-vol-3/24/docker-128.png;fontStyle=1" vertex="1" parent="6m14IXHiwR1GvfuoIgwy-46">
          <mxGeometry x="568" y="302" width="104" height="104" as="geometry" />
        </mxCell>
        <mxCell id="6m14IXHiwR1GvfuoIgwy-33" value="&lt;span&gt;&lt;font color=&quot;#ff8000&quot;&gt;ECS CLUSTER&lt;/font&gt;&lt;/span&gt;" style="text;html=1;align=center;verticalAlign=middle;resizable=0;points=[];autosize=1;strokeColor=none;fillColor=none;fontStyle=1;strokeWidth=9;" vertex="1" parent="6m14IXHiwR1GvfuoIgwy-27">
          <mxGeometry x="66" y="93" width="110" height="30" as="geometry" />
        </mxCell>
        <mxCell id="6m14IXHiwR1GvfuoIgwy-68" value="" style="sketch=0;points=[[0,0,0],[0.25,0,0],[0.5,0,0],[0.75,0,0],[1,0,0],[0,1,0],[0.25,1,0],[0.5,1,0],[0.75,1,0],[1,1,0],[0,0.25,0],[0,0.5,0],[0,0.75,0],[1,0.25,0],[1,0.5,0],[1,0.75,0]];points=[[0,0,0],[0.25,0,0],[0.5,0,0],[0.75,0,0],[1,0,0],[0,1,0],[0.25,1,0],[0.5,1,0],[0.75,1,0],[1,1,0],[0,0.25,0],[0,0.5,0],[0,0.75,0],[1,0.25,0],[1,0.5,0],[1,0.75,0]];outlineConnect=0;fontColor=#232F3E;fillColor=#E7157B;strokeColor=#ffffff;dashed=0;verticalLabelPosition=bottom;verticalAlign=top;align=center;html=1;fontSize=12;fontStyle=0;aspect=fixed;shape=mxgraph.aws4.resourceIcon;resIcon=mxgraph.aws4.cloudwatch_2;" vertex="1" parent="6m14IXHiwR1GvfuoIgwy-27">
          <mxGeometry x="840" y="12" width="78" height="78" as="geometry" />
        </mxCell>
        <mxCell id="6m14IXHiwR1GvfuoIgwy-69" value="" style="outlineConnect=0;dashed=0;verticalLabelPosition=bottom;verticalAlign=top;align=center;html=1;shape=mxgraph.aws3.dynamo_db;fillColor=#2E73B8;gradientColor=none;" vertex="1" parent="6m14IXHiwR1GvfuoIgwy-27">
          <mxGeometry x="743" y="13" width="72" height="81" as="geometry" />
        </mxCell>
        <mxCell id="6m14IXHiwR1GvfuoIgwy-70" value="" style="outlineConnect=0;dashed=0;verticalLabelPosition=bottom;verticalAlign=top;align=center;html=1;shape=mxgraph.aws3.elasticache;fillColor=#2E73B8;gradientColor=none;" vertex="1" parent="6m14IXHiwR1GvfuoIgwy-27">
          <mxGeometry x="655" y="14" width="67.5" height="81" as="geometry" />
        </mxCell>
        <mxCell id="6m14IXHiwR1GvfuoIgwy-28" value="" style="outlineConnect=0;dashed=0;verticalLabelPosition=bottom;verticalAlign=top;align=center;html=1;shape=mxgraph.aws3.virtual_private_cloud;fillColor=#F58534;gradientColor=none;" vertex="1" parent="1">
          <mxGeometry x="250" y="-970" width="79.5" height="54" as="geometry" />
        </mxCell>
        <mxCell id="6m14IXHiwR1GvfuoIgwy-67" style="edgeStyle=orthogonalEdgeStyle;rounded=0;orthogonalLoop=1;jettySize=auto;html=1;entryX=0.5;entryY=1;entryDx=0;entryDy=0;fillColor=#f0a30a;strokeColor=#BD7000;" edge="1" parent="1" source="6m14IXHiwR1GvfuoIgwy-30" target="6m14IXHiwR1GvfuoIgwy-31">
          <mxGeometry relative="1" as="geometry">
            <Array as="points">
              <mxPoint x="729" y="-650" />
              <mxPoint x="729" y="-650" />
            </Array>
          </mxGeometry>
        </mxCell>
        <mxCell id="6m14IXHiwR1GvfuoIgwy-30" value="" style="outlineConnect=0;dashed=0;verticalLabelPosition=bottom;verticalAlign=top;align=center;html=1;shape=mxgraph.aws3.application_load_balancer;fillColor=#F58534;gradientColor=none;" vertex="1" parent="1">
          <mxGeometry x="694.5" y="-1022" width="69" height="72" as="geometry" />
        </mxCell>
        <mxCell id="6m14IXHiwR1GvfuoIgwy-71" value="" style="swimlane;startSize=0;fillColor=#b0e3e6;strokeColor=#0e8088;" vertex="1" parent="1">
          <mxGeometry x="1289" y="-954" width="200" height="564" as="geometry">
            <mxRectangle x="1359" y="-864" width="50" height="40" as="alternateBounds" />
          </mxGeometry>
        </mxCell>
        <mxCell id="6m14IXHiwR1GvfuoIgwy-72" value="&lt;b&gt;API CADASTRO&lt;/b&gt;" style="sketch=0;points=[[0,0,0],[0.25,0,0],[0.5,0,0],[0.75,0,0],[1,0,0],[0,1,0],[0.25,1,0],[0.5,1,0],[0.75,1,0],[1,1,0],[0,0.25,0],[0,0.5,0],[0,0.75,0],[1,0.25,0],[1,0.5,0],[1,0.75,0]];outlineConnect=0;fontColor=#232F3E;fillColor=#E7157B;strokeColor=#ffffff;dashed=0;verticalLabelPosition=bottom;verticalAlign=top;align=center;html=1;fontSize=12;fontStyle=0;aspect=fixed;shape=mxgraph.aws4.resourceIcon;resIcon=mxgraph.aws4.api_gateway;" vertex="1" parent="6m14IXHiwR1GvfuoIgwy-71">
          <mxGeometry x="61" y="459" width="78" height="78" as="geometry" />
        </mxCell>
        <mxCell id="6m14IXHiwR1GvfuoIgwy-73" value="&lt;b&gt;API BACEN&lt;/b&gt;" style="sketch=0;points=[[0,0,0],[0.25,0,0],[0.5,0,0],[0.75,0,0],[1,0,0],[0,1,0],[0.25,1,0],[0.5,1,0],[0.75,1,0],[1,1,0],[0,0.25,0],[0,0.5,0],[0,0.75,0],[1,0.25,0],[1,0.5,0],[1,0.75,0]];outlineConnect=0;fontColor=#232F3E;fillColor=#E7157B;strokeColor=#ffffff;dashed=0;verticalLabelPosition=bottom;verticalAlign=top;align=center;html=1;fontSize=12;fontStyle=0;aspect=fixed;shape=mxgraph.aws4.resourceIcon;resIcon=mxgraph.aws4.api_gateway;" vertex="1" parent="6m14IXHiwR1GvfuoIgwy-71">
          <mxGeometry x="61" y="225" width="78" height="78" as="geometry" />
        </mxCell>
        <mxCell id="6m14IXHiwR1GvfuoIgwy-77" value="&lt;b&gt;API&#39;S&lt;/b&gt;&lt;div&gt;&lt;b&gt;de&lt;/b&gt;&lt;/div&gt;&lt;div&gt;&lt;b&gt;Consumo&lt;/b&gt;&lt;/div&gt;" style="whiteSpace=wrap;html=1;" vertex="1" parent="6m14IXHiwR1GvfuoIgwy-71">
          <mxGeometry x="50" y="80" width="120" height="60" as="geometry" />
        </mxCell>
        <mxCell id="6m14IXHiwR1GvfuoIgwy-74" style="edgeStyle=orthogonalEdgeStyle;rounded=0;orthogonalLoop=1;jettySize=auto;html=1;entryX=0;entryY=0.5;entryDx=0;entryDy=0;entryPerimeter=0;" edge="1" parent="1" source="6m14IXHiwR1GvfuoIgwy-40" target="6m14IXHiwR1GvfuoIgwy-72">
          <mxGeometry relative="1" as="geometry" />
        </mxCell>
        <mxCell id="6m14IXHiwR1GvfuoIgwy-75" style="edgeStyle=orthogonalEdgeStyle;rounded=0;orthogonalLoop=1;jettySize=auto;html=1;entryX=0;entryY=0.5;entryDx=0;entryDy=0;entryPerimeter=0;" edge="1" parent="1" source="6m14IXHiwR1GvfuoIgwy-43" target="6m14IXHiwR1GvfuoIgwy-73">
          <mxGeometry relative="1" as="geometry" />
        </mxCell>
        <mxCell id="ibqP6NN5ZghJi2KfgnGJ-10" style="edgeStyle=orthogonalEdgeStyle;rounded=0;orthogonalLoop=1;jettySize=auto;html=1;" edge="1" parent="1" source="6m14IXHiwR1GvfuoIgwy-76" target="6m14IXHiwR1GvfuoIgwy-30">
          <mxGeometry relative="1" as="geometry" />
        </mxCell>
        <mxCell id="6m14IXHiwR1GvfuoIgwy-76" value="&lt;b&gt;INTERNET&lt;/b&gt;" style="verticalLabelPosition=bottom;html=1;verticalAlign=top;align=center;strokeColor=none;fillColor=#00BEF2;shape=mxgraph.azure.cloud;" vertex="1" parent="1">
          <mxGeometry x="704" y="-1130" width="50" height="32.5" as="geometry" />
        </mxCell>
        <mxCell id="ibqP6NN5ZghJi2KfgnGJ-5" value="&lt;b&gt;SQS-RETRY&lt;/b&gt;" style="sketch=0;points=[[0,0,0],[0.25,0,0],[0.5,0,0],[0.75,0,0],[1,0,0],[0,1,0],[0.25,1,0],[0.5,1,0],[0.75,1,0],[1,1,0],[0,0.25,0],[0,0.5,0],[0,0.75,0],[1,0.25,0],[1,0.5,0],[1,0.75,0]];outlineConnect=0;fontColor=#232F3E;fillColor=#E7157B;strokeColor=#ffffff;dashed=0;verticalLabelPosition=bottom;verticalAlign=top;align=center;html=1;fontSize=12;fontStyle=0;aspect=fixed;shape=mxgraph.aws4.resourceIcon;resIcon=mxgraph.aws4.sqs;" vertex="1" parent="1">
          <mxGeometry x="1250" y="-350" width="78" height="78" as="geometry" />
        </mxCell>
        <mxCell id="ibqP6NN5ZghJi2KfgnGJ-6" value="&lt;b&gt;DLQ-RETRY&lt;/b&gt;" style="sketch=0;points=[[0,0,0],[0.25,0,0],[0.5,0,0],[0.75,0,0],[1,0,0],[0,1,0],[0.25,1,0],[0.5,1,0],[0.75,1,0],[1,1,0],[0,0.25,0],[0,0.5,0],[0,0.75,0],[1,0.25,0],[1,0.5,0],[1,0.75,0]];outlineConnect=0;fontColor=#232F3E;fillColor=#E7157B;strokeColor=#ffffff;dashed=0;verticalLabelPosition=bottom;verticalAlign=top;align=center;html=1;fontSize=12;fontStyle=0;aspect=fixed;shape=mxgraph.aws4.resourceIcon;resIcon=mxgraph.aws4.sqs;" vertex="1" parent="1">
          <mxGeometry x="1250" y="-240" width="78" height="78" as="geometry" />
        </mxCell>
        <mxCell id="ibqP6NN5ZghJi2KfgnGJ-7" value="" style="swimlane;startSize=0;dashed=1;" vertex="1" parent="1">
          <mxGeometry x="1240" y="-360" width="100" height="230" as="geometry" />
        </mxCell>
        <mxCell id="ibqP6NN5ZghJi2KfgnGJ-11" value="&lt;b&gt;Load Balancer&lt;/b&gt;" style="text;html=1;align=center;verticalAlign=middle;resizable=0;points=[];autosize=1;strokeColor=none;fillColor=none;" vertex="1" parent="1">
          <mxGeometry x="754" y="-984" width="110" height="30" as="geometry" />
        </mxCell>
      </root>
    </mxGraphModel>
  </diagram>
  <diagram id="nZY6jt1qI-PLlk-N_z8i" name="Fluxo">
    <mxGraphModel dx="2143" dy="2378" grid="1" gridSize="10" guides="1" tooltips="1" connect="1" arrows="1" fold="1" page="1" pageScale="1" pageWidth="1920" pageHeight="1200" math="0" shadow="0">
      <root>
        <mxCell id="0" />
        <mxCell id="1" parent="0" />
        <mxCell id="UFSuq9psDLOJen5IksF6-1" value="" style="rounded=0;whiteSpace=wrap;html=1;fillColor=none;" vertex="1" parent="1">
          <mxGeometry x="970" y="-1117.75" width="250" height="270" as="geometry" />
        </mxCell>
        <mxCell id="UFSuq9psDLOJen5IksF6-2" value="" style="rounded=0;whiteSpace=wrap;html=1;fillColor=none;" vertex="1" parent="1">
          <mxGeometry x="980" y="-1107.75" width="200" height="230" as="geometry" />
        </mxCell>
        <mxCell id="UFSuq9psDLOJen5IksF6-3" value="" style="rounded=0;whiteSpace=wrap;html=1;fillColor=none;dashed=1;" vertex="1" parent="1">
          <mxGeometry x="420" y="-376" width="120" height="250" as="geometry" />
        </mxCell>
        <mxCell id="UFSuq9psDLOJen5IksF6-4" value="&lt;b&gt;Comunication Layer&lt;/b&gt;" style="rounded=0;whiteSpace=wrap;html=1;fillColor=#dae8fc;strokeColor=#6c8ebf;" vertex="1" parent="1">
          <mxGeometry x="1280" y="-1085.25" width="200" height="769" as="geometry" />
        </mxCell>
        <mxCell id="UFSuq9psDLOJen5IksF6-5" value="" style="rounded=0;whiteSpace=wrap;html=1;fillColor=#d5e8d4;strokeColor=#82b366;" vertex="1" parent="1">
          <mxGeometry x="560" y="-1087.25" width="360" height="991.25" as="geometry" />
        </mxCell>
        <mxCell id="UFSuq9psDLOJen5IksF6-6" value="" style="rounded=0;whiteSpace=wrap;html=1;" vertex="1" parent="1">
          <mxGeometry x="595" y="-1046" width="290" height="920" as="geometry" />
        </mxCell>
        <mxCell id="UFSuq9psDLOJen5IksF6-7" value="" style="rounded=0;whiteSpace=wrap;html=1;fillColor=#fff2cc;strokeColor=#d6b656;" vertex="1" parent="1">
          <mxGeometry x="656.25" y="-600.25" width="173.75" height="214.25" as="geometry" />
        </mxCell>
        <mxCell id="UFSuq9psDLOJen5IksF6-8" value="Api bacen" style="rounded=0;whiteSpace=wrap;html=1;" vertex="1" parent="1">
          <mxGeometry x="1561" y="-559" width="120" height="60" as="geometry" />
        </mxCell>
        <mxCell id="UFSuq9psDLOJen5IksF6-9" value="Api cadastro" style="rounded=0;whiteSpace=wrap;html=1;" vertex="1" parent="1">
          <mxGeometry x="1561" y="-839.5" width="120" height="60" as="geometry" />
        </mxCell>
        <mxCell id="UFSuq9psDLOJen5IksF6-10" value="GET: /account" style="text;html=1;align=center;verticalAlign=middle;resizable=0;points=[];autosize=1;strokeColor=none;fillColor=none;fontStyle=1" vertex="1" parent="1">
          <mxGeometry x="1572" y="-869.5" width="100" height="30" as="geometry" />
        </mxCell>
        <mxCell id="UFSuq9psDLOJen5IksF6-11" style="edgeStyle=orthogonalEdgeStyle;rounded=0;orthogonalLoop=1;jettySize=auto;html=1;entryX=0;entryY=0.5;entryDx=0;entryDy=0;" edge="1" parent="1" source="UFSuq9psDLOJen5IksF6-29" target="UFSuq9psDLOJen5IksF6-9">
          <mxGeometry relative="1" as="geometry" />
        </mxCell>
        <mxCell id="UFSuq9psDLOJen5IksF6-12" value="" style="rounded=0;whiteSpace=wrap;html=1;fillColor=#fff2cc;strokeColor=#d6b656;" vertex="1" parent="1">
          <mxGeometry x="660" y="-856" width="170" height="100" as="geometry" />
        </mxCell>
        <mxCell id="UFSuq9psDLOJen5IksF6-13" value="&lt;b&gt;Consulta Usuario&lt;/b&gt;&lt;b&gt;&lt;br&gt;&lt;/b&gt;" style="rounded=0;whiteSpace=wrap;html=1;outlineConnect=0;dashed=0;verticalLabelPosition=bottom;verticalAlign=top;shape=mxgraph.aws3.ec2_compute_container;fillColor=#F58534;gradientColor=none;" vertex="1" parent="1">
          <mxGeometry x="683" y="-839.5" width="120" height="60" as="geometry" />
        </mxCell>
        <mxCell id="UFSuq9psDLOJen5IksF6-14" value="" style="rounded=0;whiteSpace=wrap;html=1;fillColor=#fff2cc;strokeColor=#d6b656;" vertex="1" parent="1">
          <mxGeometry x="657.5" y="-737.37" width="172.5" height="102.5" as="geometry" />
        </mxCell>
        <mxCell id="UFSuq9psDLOJen5IksF6-15" value="" style="whiteSpace=wrap;html=1;aspect=fixed;shape=image;labelBackgroundColor=default;verticalAlign=top;verticalLabelPosition=bottom;points=[];image=img/lib/azure2/compute/Azure_Spring_Cloud.svg;fontStyle=1" vertex="1" parent="1">
          <mxGeometry x="704" y="-966" width="80" height="80" as="geometry" />
        </mxCell>
        <mxCell id="UFSuq9psDLOJen5IksF6-16" value="Consulta Saldo" style="rounded=0;whiteSpace=wrap;html=1;fontStyle=1;outlineConnect=0;dashed=0;verticalLabelPosition=bottom;verticalAlign=top;shape=mxgraph.aws3.ec2_compute_container;fillColor=#F58534;gradientColor=none;" vertex="1" parent="1">
          <mxGeometry x="688" y="-716.1199999999999" width="120" height="60" as="geometry" />
        </mxCell>
        <mxCell id="UFSuq9psDLOJen5IksF6-17" value="GET: /correntistas/{idCorrentista}/saldo" style="text;html=1;align=center;verticalAlign=middle;resizable=0;points=[];autosize=1;strokeColor=none;fillColor=none;fontStyle=1" vertex="1" parent="1">
          <mxGeometry x="629" y="-739.12" width="230" height="30" as="geometry" />
        </mxCell>
        <mxCell id="UFSuq9psDLOJen5IksF6-18" value="" style="edgeStyle=orthogonalEdgeStyle;rounded=0;orthogonalLoop=1;jettySize=auto;html=1;" edge="1" parent="1" source="UFSuq9psDLOJen5IksF6-20" target="UFSuq9psDLOJen5IksF6-36">
          <mxGeometry relative="1" as="geometry">
            <Array as="points">
              <mxPoint x="748" y="-496" />
              <mxPoint x="748" y="-496" />
            </Array>
          </mxGeometry>
        </mxCell>
        <mxCell id="UFSuq9psDLOJen5IksF6-19" style="edgeStyle=orthogonalEdgeStyle;rounded=0;orthogonalLoop=1;jettySize=auto;html=1;" edge="1" parent="1" source="UFSuq9psDLOJen5IksF6-20" target="UFSuq9psDLOJen5IksF6-32">
          <mxGeometry relative="1" as="geometry" />
        </mxCell>
        <mxCell id="UFSuq9psDLOJen5IksF6-20" value="Transferencia entre contas" style="rounded=0;whiteSpace=wrap;html=1;fontStyle=1;outlineConnect=0;dashed=0;verticalLabelPosition=bottom;verticalAlign=top;shape=mxgraph.aws3.ec2_compute_container;fillColor=#F58534;gradientColor=none;" vertex="1" parent="1">
          <mxGeometry x="685" y="-559" width="120" height="60" as="geometry" />
        </mxCell>
        <mxCell id="UFSuq9psDLOJen5IksF6-21" value="POST: /correntistas/{idCorrentista}transferencias" style="text;html=1;align=center;verticalAlign=middle;resizable=0;points=[];autosize=1;strokeColor=none;fillColor=none;fontStyle=1" vertex="1" parent="1">
          <mxGeometry x="600" y="-599" width="280" height="30" as="geometry" />
        </mxCell>
        <mxCell id="UFSuq9psDLOJen5IksF6-22" value="&lt;b&gt;GET: /correntistas/{idCorrentista}transferencias&lt;/b&gt;" style="text;html=1;align=center;verticalAlign=middle;resizable=0;points=[];autosize=1;strokeColor=none;fillColor=none;" vertex="1" parent="1">
          <mxGeometry x="592.5" y="-579" width="300" height="30" as="geometry" />
        </mxCell>
        <mxCell id="UFSuq9psDLOJen5IksF6-23" value="&lt;span style=&quot;border-color: var(--border-color);&quot;&gt;Ecs Cluster&lt;/span&gt;" style="outlineConnect=0;dashed=0;verticalLabelPosition=bottom;verticalAlign=top;align=center;html=1;shape=mxgraph.aws3.ecs;fillColor=#F58534;gradientColor=none;fontStyle=1" vertex="1" parent="1">
          <mxGeometry x="813" y="-1165.25" width="72" height="67.5" as="geometry" />
        </mxCell>
        <mxCell id="UFSuq9psDLOJen5IksF6-24" value="&lt;b&gt;Http LoadBalancer&lt;/b&gt;" style="outlineConnect=0;dashed=0;verticalLabelPosition=bottom;verticalAlign=top;align=center;html=1;shape=mxgraph.aws3.classic_load_balancer;fillColor=#F58534;gradientColor=none;" vertex="1" parent="1">
          <mxGeometry x="280" y="-673.25" width="69" height="72" as="geometry" />
        </mxCell>
        <mxCell id="UFSuq9psDLOJen5IksF6-25" value="&lt;b&gt;Service&lt;/b&gt;" style="text;html=1;strokeColor=none;fillColor=none;align=center;verticalAlign=middle;whiteSpace=wrap;rounded=0;" vertex="1" parent="1">
          <mxGeometry x="710" y="-1079" width="60" height="30" as="geometry" />
        </mxCell>
        <mxCell id="UFSuq9psDLOJen5IksF6-26" value="&lt;b&gt;Container&lt;/b&gt;" style="text;html=1;strokeColor=none;fillColor=none;align=center;verticalAlign=middle;whiteSpace=wrap;rounded=0;" vertex="1" parent="1">
          <mxGeometry x="710.5" y="-995.75" width="60" height="30" as="geometry" />
        </mxCell>
        <mxCell id="UFSuq9psDLOJen5IksF6-27" value="&lt;b&gt;Task Definition&lt;/b&gt;" style="text;html=1;strokeColor=none;fillColor=none;align=center;verticalAlign=middle;whiteSpace=wrap;rounded=0;" vertex="1" parent="1">
          <mxGeometry x="710.5" y="-1038.75" width="60" height="30" as="geometry" />
        </mxCell>
        <mxCell id="UFSuq9psDLOJen5IksF6-28" value="" style="edgeStyle=orthogonalEdgeStyle;rounded=0;orthogonalLoop=1;jettySize=auto;html=1;entryX=0;entryY=0.5;entryDx=0;entryDy=0;" edge="1" parent="1" source="UFSuq9psDLOJen5IksF6-13" target="UFSuq9psDLOJen5IksF6-29">
          <mxGeometry relative="1" as="geometry">
            <mxPoint x="800" y="-820" as="sourcePoint" />
            <mxPoint x="1070" y="-820" as="targetPoint" />
          </mxGeometry>
        </mxCell>
        <mxCell id="UFSuq9psDLOJen5IksF6-29" value="&lt;b&gt;Internal API&lt;/b&gt;" style="sketch=0;points=[[0,0,0],[0.25,0,0],[0.5,0,0],[0.75,0,0],[1,0,0],[0,1,0],[0.25,1,0],[0.5,1,0],[0.75,1,0],[1,1,0],[0,0.25,0],[0,0.5,0],[0,0.75,0],[1,0.25,0],[1,0.5,0],[1,0.75,0]];outlineConnect=0;fontColor=#232F3E;fillColor=#E7157B;strokeColor=#ffffff;dashed=0;verticalLabelPosition=bottom;verticalAlign=top;align=center;html=1;fontSize=12;fontStyle=0;aspect=fixed;shape=mxgraph.aws4.resourceIcon;resIcon=mxgraph.aws4.api_gateway;" vertex="1" parent="1">
          <mxGeometry x="1340" y="-847.75" width="78" height="78" as="geometry" />
        </mxCell>
        <mxCell id="UFSuq9psDLOJen5IksF6-30" style="edgeStyle=orthogonalEdgeStyle;rounded=0;orthogonalLoop=1;jettySize=auto;html=1;entryX=0;entryY=0.5;entryDx=0;entryDy=0;" edge="1" parent="1" source="UFSuq9psDLOJen5IksF6-32" target="UFSuq9psDLOJen5IksF6-8">
          <mxGeometry relative="1" as="geometry" />
        </mxCell>
        <mxCell id="UFSuq9psDLOJen5IksF6-31" style="edgeStyle=orthogonalEdgeStyle;rounded=0;orthogonalLoop=1;jettySize=auto;html=1;exitX=0;exitY=0.75;exitDx=0;exitDy=0;exitPerimeter=0;entryX=1;entryY=0.75;entryDx=0;entryDy=0;" edge="1" parent="1" source="UFSuq9psDLOJen5IksF6-32" target="UFSuq9psDLOJen5IksF6-36">
          <mxGeometry relative="1" as="geometry">
            <Array as="points">
              <mxPoint x="890" y="-509" />
              <mxPoint x="890" y="-417" />
            </Array>
          </mxGeometry>
        </mxCell>
        <mxCell id="UFSuq9psDLOJen5IksF6-32" value="&lt;b&gt;External API&lt;/b&gt;" style="sketch=0;points=[[0,0,0],[0.25,0,0],[0.5,0,0],[0.75,0,0],[1,0,0],[0,1,0],[0.25,1,0],[0.5,1,0],[0.75,1,0],[1,1,0],[0,0.25,0],[0,0.5,0],[0,0.75,0],[1,0.25,0],[1,0.5,0],[1,0.75,0]];outlineConnect=0;fontColor=#232F3E;fillColor=#E7157B;strokeColor=#ffffff;dashed=0;verticalLabelPosition=bottom;verticalAlign=top;align=center;html=1;fontSize=12;fontStyle=0;aspect=fixed;shape=mxgraph.aws4.resourceIcon;resIcon=mxgraph.aws4.api_gateway;" vertex="1" parent="1">
          <mxGeometry x="1340" y="-568.25" width="78" height="78" as="geometry" />
        </mxCell>
        <mxCell id="UFSuq9psDLOJen5IksF6-33" value="&lt;b style=&quot;border-color: var(--border-color); color: rgb(0, 0, 0); font-family: Helvetica; font-size: 12px; font-style: normal; font-variant-ligatures: normal; font-variant-caps: normal; letter-spacing: normal; orphans: 2; text-align: center; text-indent: 0px; text-transform: none; widows: 2; word-spacing: 0px; -webkit-text-stroke-width: 0px; background-color: rgb(251, 251, 251); text-decoration-thickness: initial; text-decoration-style: initial; text-decoration-color: initial;&quot;&gt;GET: /correntistas&lt;/b&gt;" style="text;whiteSpace=wrap;html=1;" vertex="1" parent="1">
          <mxGeometry x="695.5" y="-862" width="114.5" height="40" as="geometry" />
        </mxCell>
        <mxCell id="UFSuq9psDLOJen5IksF6-34" value="&lt;b&gt;POST: /success_transaction&lt;/b&gt;" style="text;html=1;align=center;verticalAlign=middle;resizable=0;points=[];autosize=1;strokeColor=none;fillColor=none;" vertex="1" parent="1">
          <mxGeometry x="1531" y="-592.5" width="180" height="30" as="geometry" />
        </mxCell>
        <mxCell id="UFSuq9psDLOJen5IksF6-35" value="" style="edgeStyle=orthogonalEdgeStyle;rounded=0;orthogonalLoop=1;jettySize=auto;html=1;" edge="1" parent="1" source="UFSuq9psDLOJen5IksF6-36" target="UFSuq9psDLOJen5IksF6-39">
          <mxGeometry relative="1" as="geometry" />
        </mxCell>
        <mxCell id="UFSuq9psDLOJen5IksF6-36" value="Notificar Sucesso ao bacen" style="rounded=0;whiteSpace=wrap;html=1;fontStyle=1" vertex="1" parent="1">
          <mxGeometry x="688.25" y="-462.5" width="120" height="60" as="geometry" />
        </mxCell>
        <mxCell id="UFSuq9psDLOJen5IksF6-37" style="edgeStyle=orthogonalEdgeStyle;rounded=0;orthogonalLoop=1;jettySize=auto;html=1;entryX=1;entryY=0.5;entryDx=0;entryDy=0;entryPerimeter=0;dashed=1;" edge="1" parent="1" source="UFSuq9psDLOJen5IksF6-39" target="UFSuq9psDLOJen5IksF6-41">
          <mxGeometry relative="1" as="geometry">
            <mxPoint x="530" y="-406" as="targetPoint" />
          </mxGeometry>
        </mxCell>
        <mxCell id="UFSuq9psDLOJen5IksF6-38" value="Sim" style="edgeLabel;html=1;align=center;verticalAlign=middle;resizable=0;points=[];" vertex="1" connectable="0" parent="UFSuq9psDLOJen5IksF6-37">
          <mxGeometry x="-0.1219" relative="1" as="geometry">
            <mxPoint x="64" as="offset" />
          </mxGeometry>
        </mxCell>
        <mxCell id="UFSuq9psDLOJen5IksF6-39" value="Error Bacen" style="rhombus;whiteSpace=wrap;html=1;" vertex="1" parent="1">
          <mxGeometry x="708" y="-356" width="80" height="80" as="geometry" />
        </mxCell>
        <mxCell id="UFSuq9psDLOJen5IksF6-40" style="edgeStyle=orthogonalEdgeStyle;rounded=0;orthogonalLoop=1;jettySize=auto;html=1;entryX=0;entryY=0.5;entryDx=0;entryDy=0;dashed=1;exitX=0.5;exitY=0;exitDx=0;exitDy=0;exitPerimeter=0;" edge="1" parent="1" source="UFSuq9psDLOJen5IksF6-41">
          <mxGeometry relative="1" as="geometry">
            <Array as="points">
              <mxPoint x="480" y="-432" />
              <mxPoint x="490" y="-432" />
            </Array>
            <mxPoint x="490" y="-355" as="sourcePoint" />
            <mxPoint x="688.25" y="-432.5" as="targetPoint" />
          </mxGeometry>
        </mxCell>
        <mxCell id="UFSuq9psDLOJen5IksF6-41" value="&lt;b&gt;SQS Retry&lt;/b&gt;" style="sketch=0;points=[[0,0,0],[0.25,0,0],[0.5,0,0],[0.75,0,0],[1,0,0],[0,1,0],[0.25,1,0],[0.5,1,0],[0.75,1,0],[1,1,0],[0,0.25,0],[0,0.5,0],[0,0.75,0],[1,0.25,0],[1,0.5,0],[1,0.75,0]];outlineConnect=0;fontColor=#232F3E;fillColor=#E7157B;strokeColor=#ffffff;dashed=0;verticalLabelPosition=bottom;verticalAlign=top;align=center;html=1;fontSize=12;fontStyle=0;aspect=fixed;shape=mxgraph.aws4.resourceIcon;resIcon=mxgraph.aws4.sqs;" vertex="1" parent="1">
          <mxGeometry x="441" y="-355" width="78" height="78" as="geometry" />
        </mxCell>
        <mxCell id="UFSuq9psDLOJen5IksF6-42" value="&lt;b&gt;Dlq Retry&lt;/b&gt;" style="sketch=0;points=[[0,0,0],[0.25,0,0],[0.5,0,0],[0.75,0,0],[1,0,0],[0,1,0],[0.25,1,0],[0.5,1,0],[0.75,1,0],[1,1,0],[0,0.25,0],[0,0.5,0],[0,0.75,0],[1,0.25,0],[1,0.5,0],[1,0.75,0]];outlineConnect=0;fontColor=#232F3E;fillColor=#E7157B;strokeColor=#ffffff;dashed=0;verticalLabelPosition=bottom;verticalAlign=top;align=center;html=1;fontSize=12;fontStyle=0;aspect=fixed;shape=mxgraph.aws4.resourceIcon;resIcon=mxgraph.aws4.sqs;" vertex="1" parent="1">
          <mxGeometry x="440" y="-247" width="78" height="78" as="geometry" />
        </mxCell>
        <mxCell id="UFSuq9psDLOJen5IksF6-43" style="edgeStyle=orthogonalEdgeStyle;rounded=0;orthogonalLoop=1;jettySize=auto;html=1;entryX=0.006;entryY=0.454;entryDx=0;entryDy=0;entryPerimeter=0;" edge="1" parent="1" source="UFSuq9psDLOJen5IksF6-24" target="UFSuq9psDLOJen5IksF6-5">
          <mxGeometry relative="1" as="geometry" />
        </mxCell>
        <mxCell id="UFSuq9psDLOJen5IksF6-44" value="&lt;b&gt;ECR&lt;/b&gt;" style="sketch=0;points=[[0,0,0],[0.25,0,0],[0.5,0,0],[0.75,0,0],[1,0,0],[0,1,0],[0.25,1,0],[0.5,1,0],[0.75,1,0],[1,1,0],[0,0.25,0],[0,0.5,0],[0,0.75,0],[1,0.25,0],[1,0.5,0],[1,0.75,0]];outlineConnect=0;fontColor=#232F3E;fillColor=#ED7100;strokeColor=#ffffff;dashed=0;verticalLabelPosition=bottom;verticalAlign=top;align=center;html=1;fontSize=12;fontStyle=0;aspect=fixed;shape=mxgraph.aws4.resourceIcon;resIcon=mxgraph.aws4.ecr;" vertex="1" parent="1">
          <mxGeometry x="990" y="-979.25" width="78" height="78" as="geometry" />
        </mxCell>
        <mxCell id="UFSuq9psDLOJen5IksF6-45" value="&lt;b&gt;EC2&lt;/b&gt;" style="outlineConnect=0;dashed=0;verticalLabelPosition=bottom;verticalAlign=top;align=center;html=1;shape=mxgraph.aws3.ec2;fillColor=#F58534;gradientColor=none;" vertex="1" parent="1">
          <mxGeometry x="713.75" y="-255.5" width="76.5" height="93" as="geometry" />
        </mxCell>
        <mxCell id="UFSuq9psDLOJen5IksF6-46" value="CloudWatch" style="sketch=0;points=[[0,0,0],[0.25,0,0],[0.5,0,0],[0.75,0,0],[1,0,0],[0,1,0],[0.25,1,0],[0.5,1,0],[0.75,1,0],[1,1,0],[0,0.25,0],[0,0.5,0],[0,0.75,0],[1,0.25,0],[1,0.5,0],[1,0.75,0]];points=[[0,0,0],[0.25,0,0],[0.5,0,0],[0.75,0,0],[1,0,0],[0,1,0],[0.25,1,0],[0.5,1,0],[0.75,1,0],[1,1,0],[0,0.25,0],[0,0.5,0],[0,0.75,0],[1,0.25,0],[1,0.5,0],[1,0.75,0]];outlineConnect=0;fontColor=#232F3E;fillColor=#E7157B;strokeColor=#ffffff;dashed=0;verticalLabelPosition=bottom;verticalAlign=top;align=center;html=1;fontSize=12;fontStyle=1;aspect=fixed;shape=mxgraph.aws4.resourceIcon;resIcon=mxgraph.aws4.cloudwatch_2;" vertex="1" parent="1">
          <mxGeometry x="990" y="-1094.75" width="78" height="78" as="geometry" />
        </mxCell>
        <mxCell id="UFSuq9psDLOJen5IksF6-47" value="&lt;b&gt;DynamoDB&lt;/b&gt;" style="outlineConnect=0;dashed=0;verticalLabelPosition=bottom;verticalAlign=top;align=center;html=1;shape=mxgraph.aws3.dynamo_db;fillColor=#2E73B8;gradientColor=none;" vertex="1" parent="1">
          <mxGeometry x="1090" y="-1097.75" width="72" height="81" as="geometry" />
        </mxCell>
        <mxCell id="UFSuq9psDLOJen5IksF6-48" value="&lt;b&gt;EC2&lt;/b&gt;" style="outlineConnect=0;dashed=0;verticalLabelPosition=bottom;verticalAlign=top;align=center;html=1;shape=mxgraph.aws3.ec2;fillColor=#F58534;gradientColor=none;" vertex="1" parent="1">
          <mxGeometry x="1087.75" y="-994.25" width="76.5" height="93" as="geometry" />
        </mxCell>
        <mxCell id="UFSuq9psDLOJen5IksF6-49" value="&lt;b&gt;Amazon&amp;nbsp;&lt;/b&gt;&lt;div&gt;&lt;b&gt;ElastiCache&lt;/b&gt;&lt;/div&gt;" style="outlineConnect=0;dashed=0;verticalLabelPosition=bottom;verticalAlign=top;align=center;html=1;shape=mxgraph.aws3.elasticsearch_service;fillColor=#F58534;gradientColor=none;" vertex="1" parent="1">
          <mxGeometry x="1164.25" y="-1151.75" width="67.5" height="81" as="geometry" />
        </mxCell>
        <mxCell id="UFSuq9psDLOJen5IksF6-50" value="" style="sketch=0;points=[[0,0,0],[0.25,0,0],[0.5,0,0],[0.75,0,0],[1,0,0],[0,1,0],[0.25,1,0],[0.5,1,0],[0.75,1,0],[1,1,0],[0,0.25,0],[0,0.5,0],[0,0.75,0],[1,0.25,0],[1,0.5,0],[1,0.75,0]];outlineConnect=0;fontColor=#232F3E;fillColor=#C925D1;strokeColor=#ffffff;dashed=0;verticalLabelPosition=bottom;verticalAlign=top;align=center;html=1;fontSize=12;fontStyle=0;aspect=fixed;shape=mxgraph.aws4.resourceIcon;resIcon=mxgraph.aws4.customer_enablement;" vertex="1" parent="1">
          <mxGeometry x="20" y="-696" width="78" height="78" as="geometry" />
        </mxCell>
        <mxCell id="UFSuq9psDLOJen5IksF6-51" value="" style="sketch=0;points=[[0,0,0],[0.25,0,0],[0.5,0,0],[0.75,0,0],[1,0,0],[0,1,0],[0.25,1,0],[0.5,1,0],[0.75,1,0],[1,1,0],[0,0.25,0],[0,0.5,0],[0,0.75,0],[1,0.25,0],[1,0.5,0],[1,0.75,0]];outlineConnect=0;fontColor=#232F3E;fillColor=#C925D1;strokeColor=#ffffff;dashed=0;verticalLabelPosition=bottom;verticalAlign=top;align=center;html=1;fontSize=12;fontStyle=0;aspect=fixed;shape=mxgraph.aws4.resourceIcon;resIcon=mxgraph.aws4.customer_enablement;" vertex="1" parent="1">
          <mxGeometry x="30" y="-686" width="78" height="78" as="geometry" />
        </mxCell>
        <mxCell id="UFSuq9psDLOJen5IksF6-52" value="&lt;b&gt;Consumer&lt;/b&gt;" style="sketch=0;points=[[0,0,0],[0.25,0,0],[0.5,0,0],[0.75,0,0],[1,0,0],[0,1,0],[0.25,1,0],[0.5,1,0],[0.75,1,0],[1,1,0],[0,0.25,0],[0,0.5,0],[0,0.75,0],[1,0.25,0],[1,0.5,0],[1,0.75,0]];outlineConnect=0;fontColor=#232F3E;fillColor=#C925D1;strokeColor=#ffffff;dashed=0;verticalLabelPosition=bottom;verticalAlign=top;align=center;html=1;fontSize=12;fontStyle=0;aspect=fixed;shape=mxgraph.aws4.resourceIcon;resIcon=mxgraph.aws4.customer_enablement;" vertex="1" parent="1">
          <mxGeometry x="40" y="-676" width="78" height="78" as="geometry" />
        </mxCell>
        <mxCell id="UFSuq9psDLOJen5IksF6-53" style="edgeStyle=orthogonalEdgeStyle;rounded=0;orthogonalLoop=1;jettySize=auto;html=1;entryX=0;entryY=0.5;entryDx=0;entryDy=0;entryPerimeter=0;" edge="1" parent="1" source="UFSuq9psDLOJen5IksF6-52" target="UFSuq9psDLOJen5IksF6-24">
          <mxGeometry relative="1" as="geometry" />
        </mxCell>
        <mxCell id="UFSuq9psDLOJen5IksF6-54" style="edgeStyle=orthogonalEdgeStyle;rounded=0;orthogonalLoop=1;jettySize=auto;html=1;entryX=1.005;entryY=0.103;entryDx=0;entryDy=0;entryPerimeter=0;" edge="1" parent="1" source="UFSuq9psDLOJen5IksF6-1" target="UFSuq9psDLOJen5IksF6-6">
          <mxGeometry relative="1" as="geometry" />
        </mxCell>
      </root>
    </mxGraphModel>
  </diagram>
</mxfile>
